#N canvas 567 160 639 753 10;
#X obj 164 365 dac~;
#X obj 174 309 *~;
#X floatatom 230 260 5 0 1 0 - - -, f 5;
#X floatatom 40 80 5 0 0 0 - - -, f 5;
#N canvas 736 263 450 417 osc_handler 1;
#X obj 83 -171 unpackOSC;
#X obj 20 -240 import mrpeach;
#X obj 82 -219 udpreceive 9001;
#X obj 93 -125 routeOSC /play;
#X obj 90 -90 routeOSC /voice /volume;
#X obj 100 -40 outlet;
#X obj 180 -40 outlet;
#X connect 0 0 3 0;
#X connect 2 0 0 0;
#X connect 3 0 4 0;
#X connect 4 0 5 0;
#X connect 4 1 6 0;
#X restore 100 30 pd osc_handler;
#X obj 222 33 loadbang;
#X msg 332 103 \; pd dsp 1;
#X obj 302 63 delay 5000;
#X obj 100 160 clone synth.cl 64;
#X obj 190 80 s note_volume;
#X floatatom 140 60 5 0 0 0 - - -, f 5;
#X msg 100 110 next \$1;
#X msg 250 230 0.75;
#X connect 1 0 0 0;
#X connect 1 0 0 1;
#X connect 2 0 1 1;
#X connect 4 0 3 0;
#X connect 4 0 11 0;
#X connect 4 1 9 0;
#X connect 4 1 10 0;
#X connect 5 0 7 0;
#X connect 7 0 6 0;
#X connect 7 0 12 0;
#X connect 8 0 1 0;
#X connect 11 0 8 0;
#X connect 12 0 2 0;
