#N canvas 567 160 639 753 10;
#X obj 210 600 dac~;
#X obj 210 540 *~;
#X floatatom 390 480 5 0 1 0 - - -, f 5;
#X floatatom 40 80 5 0 0 0 - - -, f 5;
#N canvas 765 237 450 417 osc_handler 0;
#X obj 83 -171 unpackOSC;
#X obj 20 -240 import mrpeach;
#X obj 82 -219 udpreceive 9001;
#X obj 93 -125 routeOSC /play;
#X obj 100 -40 outlet;
#X obj 180 -40 outlet;
#X obj 90 -90 routeOSC /midi /volume /freq;
#X obj 260 -40 outlet;
#X connect 0 0 3 0;
#X connect 2 0 0 0;
#X connect 3 0 6 0;
#X connect 6 0 4 0;
#X connect 6 1 5 0;
#X connect 6 2 7 0;
#X restore 100 30 pd osc_handler;
#X obj 222 33 loadbang;
#X msg 332 103 \; pd dsp 1;
#X obj 302 63 delay 5000;
#X obj 100 160 clone synth.cl 64;
#X obj 180 90 s note_volume;
#X floatatom 120 80 5 0 0 0 - - -, f 5;
#X msg 100 110 next \$1;
#X msg 390 370 0.75;
#X obj 60 340 +~;
#X obj 220 240 osc~;
#X obj 250 250 r note_volume;
#X obj 180 300 *~;
#X connect 1 0 0 0;
#X connect 1 0 0 1;
#X connect 2 0 1 1;
#X connect 4 0 3 0;
#X connect 4 0 11 0;
#X connect 4 1 9 0;
#X connect 4 1 10 0;
#X connect 4 2 14 0;
#X connect 5 0 7 0;
#X connect 7 0 6 0;
#X connect 7 0 12 0;
#X connect 8 0 13 0;
#X connect 11 0 8 0;
#X connect 12 0 2 0;
#X connect 13 0 1 0;
#X connect 14 0 16 0;
#X connect 15 0 16 1;
#X connect 16 0 13 1;
