#N canvas 447 292 497 382 10;
#X obj 105 142 osc~;
#X obj 100 180 *~, f 2;
#N canvas 646 315 747 502 env 0;
#X obj 138 121 line~;
#X msg 128 81 1 5;
#X obj 138 41 bng 18 250 50 0 empty empty empty 17 7 0 10 #fcfcfc #000000
#000000;
#X obj 168 51 del 100;
#X obj 148 151 *~;
#X obj 148 176 *~;
#X floatatom 230 50 5 0 0 0 - - -, f 5;
#X obj 110 10 inlet;
#X obj 150 220 outlet~;
#X obj 170 80 pack 0 1100;
#X obj 210 20 inlet;
#X connect 0 0 4 0;
#X connect 0 0 4 1;
#X connect 1 0 0 0;
#X connect 2 0 1 0;
#X connect 2 0 3 0;
#X connect 3 0 9 0;
#X connect 4 0 5 0;
#X connect 4 0 5 1;
#X connect 5 0 8 0;
#X connect 6 0 9 1;
#X connect 7 0 2 0;
#X connect 9 0 0 0;
#X connect 10 0 6 0;
#X restore 158 145 pd env;
#X obj 102 119 mtof;
#X obj 115 32 inlet;
#X obj 105 242 outlet~;
#X obj 115 72 t f b;
#X obj 170 200 *~;
#X floatatom 230 180 5 0 1 0 - - -, f 5;
#X obj 250 90 r note_volume;
#X connect 0 0 1 0;
#X connect 1 0 7 0;
#X connect 2 0 1 1;
#X connect 3 0 0 0;
#X connect 4 0 6 0;
#X connect 6 0 3 0;
#X connect 6 1 2 0;
#X connect 7 0 5 0;
#X connect 8 0 7 1;
#X connect 9 0 8 0;
